<?xml version="1.0" encoding="utf-8"?>
<svg xmlns="http://www.w3.org/2000/svg" xmlns:xlink="http://www.w3.org/1999/xlink" width="600" height="400" viewBox="0 0 2400 1600">
<defs>
  <clipPath id="clip5300">
    <rect x="0" y="0" width="2400" height="1600"/>
  </clipPath>
</defs>
<path clip-path="url(#clip5300)" d="
M0 1600 L2400 1600 L2400 0 L0 0  Z
  " fill="#ffffff" fill-rule="evenodd" fill-opacity="1"/>
<defs>
  <clipPath id="clip5301">
    <rect x="480" y="0" width="1681" height="1600"/>
  </clipPath>
</defs>
<path clip-path="url(#clip5300)" d="
M145.904 1486.45 L2352.76 1486.45 L2352.76 47.2441 L145.904 47.2441  Z
  " fill="#ffffff" fill-rule="evenodd" fill-opacity="1"/>
<defs>
  <clipPath id="clip5302">
    <rect x="145" y="47" width="2208" height="1440"/>
  </clipPath>
</defs>
<polyline clip-path="url(#clip5302)" style="stroke:#000000; stroke-width:2; stroke-opacity:0.1; fill:none" points="
  416.556,1486.45 416.556,47.2441 
  "/>
<polyline clip-path="url(#clip5302)" style="stroke:#000000; stroke-width:2; stroke-opacity:0.1; fill:none" points="
  832.943,1486.45 832.943,47.2441 
  "/>
<polyline clip-path="url(#clip5302)" style="stroke:#000000; stroke-width:2; stroke-opacity:0.1; fill:none" points="
  1249.33,1486.45 1249.33,47.2441 
  "/>
<polyline clip-path="url(#clip5302)" style="stroke:#000000; stroke-width:2; stroke-opacity:0.1; fill:none" points="
  1665.72,1486.45 1665.72,47.2441 
  "/>
<polyline clip-path="url(#clip5302)" style="stroke:#000000; stroke-width:2; stroke-opacity:0.1; fill:none" points="
  2082.1,1486.45 2082.1,47.2441 
  "/>
<polyline clip-path="url(#clip5302)" style="stroke:#000000; stroke-width:2; stroke-opacity:0.1; fill:none" points="
  145.904,1174.17 2352.76,1174.17 
  "/>
<polyline clip-path="url(#clip5302)" style="stroke:#000000; stroke-width:2; stroke-opacity:0.1; fill:none" points="
  145.904,766.846 2352.76,766.846 
  "/>
<polyline clip-path="url(#clip5302)" style="stroke:#000000; stroke-width:2; stroke-opacity:0.1; fill:none" points="
  145.904,359.524 2352.76,359.524 
  "/>
<polyline clip-path="url(#clip5302)" style="stroke:#000000; stroke-width:2; stroke-opacity:0.1; fill:none" points="
  145.904,87.9763 2352.76,87.9763 
  "/>
<polyline clip-path="url(#clip5300)" style="stroke:#000000; stroke-width:4; stroke-opacity:1; fill:none" points="
  145.904,1486.45 2352.76,1486.45 
  "/>
<polyline clip-path="url(#clip5300)" style="stroke:#000000; stroke-width:4; stroke-opacity:1; fill:none" points="
  145.904,1486.45 145.904,47.2441 
  "/>
<polyline clip-path="url(#clip5300)" style="stroke:#000000; stroke-width:4; stroke-opacity:1; fill:none" points="
  416.556,1486.45 416.556,1469.18 
  "/>
<polyline clip-path="url(#clip5300)" style="stroke:#000000; stroke-width:4; stroke-opacity:1; fill:none" points="
  832.943,1486.45 832.943,1469.18 
  "/>
<polyline clip-path="url(#clip5300)" style="stroke:#000000; stroke-width:4; stroke-opacity:1; fill:none" points="
  1249.33,1486.45 1249.33,1469.18 
  "/>
<polyline clip-path="url(#clip5300)" style="stroke:#000000; stroke-width:4; stroke-opacity:1; fill:none" points="
  1665.72,1486.45 1665.72,1469.18 
  "/>
<polyline clip-path="url(#clip5300)" style="stroke:#000000; stroke-width:4; stroke-opacity:1; fill:none" points="
  2082.1,1486.45 2082.1,1469.18 
  "/>
<polyline clip-path="url(#clip5300)" style="stroke:#000000; stroke-width:4; stroke-opacity:1; fill:none" points="
  145.904,1174.17 172.386,1174.17 
  "/>
<polyline clip-path="url(#clip5300)" style="stroke:#000000; stroke-width:4; stroke-opacity:1; fill:none" points="
  145.904,766.846 172.386,766.846 
  "/>
<polyline clip-path="url(#clip5300)" style="stroke:#000000; stroke-width:4; stroke-opacity:1; fill:none" points="
  145.904,359.524 172.386,359.524 
  "/>
<polyline clip-path="url(#clip5300)" style="stroke:#000000; stroke-width:4; stroke-opacity:1; fill:none" points="
  145.904,87.9763 172.386,87.9763 
  "/>
<path clip-path="url(#clip5300)" d="M 0 0 M396.567 1525.04 L409.044 1525.04 L409.044 1528.83 L396.567 1528.83 L396.567 1525.04 Z" fill="#000000" fill-rule="evenodd" fill-opacity="1" /><path clip-path="url(#clip5300)" d="M 0 0 M426.961 1509.43 L415.155 1527.88 L426.961 1527.88 L426.961 1509.43 M425.734 1505.36 L431.613 1505.36 L431.613 1527.88 L436.544 1527.88 L436.544 1531.77 L431.613 1531.77 L431.613 1539.92 L426.961 1539.92 L426.961 1531.77 L411.359 1531.77 L411.359 1527.26 L425.734 1505.36 Z" fill="#000000" fill-rule="evenodd" fill-opacity="1" /><path clip-path="url(#clip5300)" d="M 0 0 M813.996 1525.04 L826.473 1525.04 L826.473 1528.83 L813.996 1528.83 L813.996 1525.04 Z" fill="#000000" fill-rule="evenodd" fill-opacity="1" /><path clip-path="url(#clip5300)" d="M 0 0 M835.57 1535.98 L851.889 1535.98 L851.889 1539.92 L829.945 1539.92 L829.945 1535.98 Q832.607 1533.23 837.19 1528.6 Q841.797 1523.95 842.977 1522.61 Q845.223 1520.08 846.102 1518.35 Q847.005 1516.59 847.005 1514.9 Q847.005 1512.14 845.061 1510.41 Q843.139 1508.67 840.038 1508.67 Q837.839 1508.67 835.385 1509.43 Q832.954 1510.2 830.177 1511.75 L830.177 1507.03 Q833.001 1505.89 835.454 1505.31 Q837.908 1504.73 839.945 1504.73 Q845.315 1504.73 848.51 1507.42 Q851.704 1510.11 851.704 1514.6 Q851.704 1516.73 850.894 1518.65 Q850.107 1520.54 848 1523.14 Q847.422 1523.81 844.32 1527.03 Q841.218 1530.22 835.57 1535.98 Z" fill="#000000" fill-rule="evenodd" fill-opacity="1" /><path clip-path="url(#clip5300)" d="M 0 0 M1249.33 1508.44 Q1245.72 1508.44 1243.89 1512 Q1242.08 1515.55 1242.08 1522.67 Q1242.08 1529.78 1243.89 1533.35 Q1245.72 1536.89 1249.33 1536.89 Q1252.96 1536.89 1254.77 1533.35 Q1256.6 1529.78 1256.6 1522.67 Q1256.6 1515.55 1254.77 1512 Q1252.96 1508.44 1249.33 1508.44 M1249.33 1504.73 Q1255.14 1504.73 1258.2 1509.34 Q1261.27 1513.92 1261.27 1522.67 Q1261.27 1531.4 1258.2 1536.01 Q1255.14 1540.59 1249.33 1540.59 Q1243.52 1540.59 1240.44 1536.01 Q1237.39 1531.4 1237.39 1522.67 Q1237.39 1513.92 1240.44 1509.34 Q1243.52 1504.73 1249.33 1504.73 Z" fill="#000000" fill-rule="evenodd" fill-opacity="1" /><path clip-path="url(#clip5300)" d="M 0 0 M1660.37 1535.98 L1676.69 1535.98 L1676.69 1539.92 L1654.74 1539.92 L1654.74 1535.98 Q1657.41 1533.23 1661.99 1528.6 Q1666.6 1523.95 1667.78 1522.61 Q1670.02 1520.08 1670.9 1518.35 Q1671.8 1516.59 1671.8 1514.9 Q1671.8 1512.14 1669.86 1510.41 Q1667.94 1508.67 1664.84 1508.67 Q1662.64 1508.67 1660.18 1509.43 Q1657.75 1510.2 1654.98 1511.75 L1654.98 1507.03 Q1657.8 1505.89 1660.25 1505.31 Q1662.71 1504.73 1664.74 1504.73 Q1670.12 1504.73 1673.31 1507.42 Q1676.5 1510.11 1676.5 1514.6 Q1676.5 1516.73 1675.69 1518.65 Q1674.91 1520.54 1672.8 1523.14 Q1672.22 1523.81 1669.12 1527.03 Q1666.02 1530.22 1660.37 1535.98 Z" fill="#000000" fill-rule="evenodd" fill-opacity="1" /><path clip-path="url(#clip5300)" d="M 0 0 M2085.11 1509.43 L2073.31 1527.88 L2085.11 1527.88 L2085.11 1509.43 M2083.89 1505.36 L2089.77 1505.36 L2089.77 1527.88 L2094.7 1527.88 L2094.7 1531.77 L2089.77 1531.77 L2089.77 1539.92 L2085.11 1539.92 L2085.11 1531.77 L2069.51 1531.77 L2069.51 1527.26 L2083.89 1505.36 Z" fill="#000000" fill-rule="evenodd" fill-opacity="1" /><path clip-path="url(#clip5300)" d="M 0 0 M66.6264 1187.51 L74.2652 1187.51 L74.2652 1161.15 L65.9551 1162.81 L65.9551 1158.55 L74.2189 1156.89 L78.8948 1156.89 L78.8948 1187.51 L86.5337 1187.51 L86.5337 1191.45 L66.6264 1191.45 L66.6264 1187.51 Z" fill="#000000" fill-rule="evenodd" fill-opacity="1" /><path clip-path="url(#clip5300)" d="M 0 0 M91.6031 1185.57 L96.4873 1185.57 L96.4873 1191.45 L91.6031 1191.45 L91.6031 1185.57 Z" fill="#000000" fill-rule="evenodd" fill-opacity="1" /><path clip-path="url(#clip5300)" d="M 0 0 M105.584 1187.51 L121.904 1187.51 L121.904 1191.45 L99.9595 1191.45 L99.9595 1187.51 Q102.622 1184.76 107.205 1180.13 Q111.811 1175.48 112.992 1174.13 Q115.237 1171.61 116.117 1169.87 Q117.02 1168.11 117.02 1166.42 Q117.02 1163.67 115.075 1161.93 Q113.154 1160.2 110.052 1160.2 Q107.853 1160.2 105.399 1160.96 Q102.969 1161.73 100.191 1163.28 L100.191 1158.55 Q103.015 1157.42 105.469 1156.84 Q107.922 1156.26 109.959 1156.26 Q115.33 1156.26 118.524 1158.95 Q121.719 1161.63 121.719 1166.12 Q121.719 1168.25 120.908 1170.17 Q120.121 1172.07 118.015 1174.67 Q117.436 1175.34 114.334 1178.55 Q111.233 1181.75 105.584 1187.51 Z" fill="#000000" fill-rule="evenodd" fill-opacity="1" /><path clip-path="url(#clip5300)" d="M 0 0 M66.0245 780.191 L73.6634 780.191 L73.6634 753.825 L65.3532 755.492 L65.3532 751.233 L73.6171 749.566 L78.293 749.566 L78.293 780.191 L85.9318 780.191 L85.9318 784.126 L66.0245 784.126 L66.0245 780.191 Z" fill="#000000" fill-rule="evenodd" fill-opacity="1" /><path clip-path="url(#clip5300)" d="M 0 0 M91.0012 778.246 L95.8855 778.246 L95.8855 784.126 L91.0012 784.126 L91.0012 778.246 Z" fill="#000000" fill-rule="evenodd" fill-opacity="1" /><path clip-path="url(#clip5300)" d="M 0 0 M101.001 749.566 L119.358 749.566 L119.358 753.501 L105.284 753.501 L105.284 761.973 Q106.302 761.626 107.321 761.464 Q108.339 761.279 109.358 761.279 Q115.145 761.279 118.524 764.45 Q121.904 767.621 121.904 773.038 Q121.904 778.617 118.432 781.719 Q114.959 784.797 108.64 784.797 Q106.464 784.797 104.196 784.427 Q101.95 784.057 99.5429 783.316 L99.5429 778.617 Q101.626 779.751 103.848 780.307 Q106.071 780.862 108.547 780.862 Q112.552 780.862 114.89 778.756 Q117.228 776.649 117.228 773.038 Q117.228 769.427 114.89 767.321 Q112.552 765.214 108.547 765.214 Q106.672 765.214 104.797 765.631 Q102.946 766.047 101.001 766.927 L101.001 749.566 Z" fill="#000000" fill-rule="evenodd" fill-opacity="1" /><path clip-path="url(#clip5300)" d="M 0 0 M65.1217 372.869 L72.7606 372.869 L72.7606 346.503 L64.4505 348.17 L64.4505 343.911 L72.7143 342.244 L77.3902 342.244 L77.3902 372.869 L85.029 372.869 L85.029 376.804 L65.1217 376.804 L65.1217 372.869 Z" fill="#000000" fill-rule="evenodd" fill-opacity="1" /><path clip-path="url(#clip5300)" d="M 0 0 M90.0985 370.925 L94.9827 370.925 L94.9827 376.804 L90.0985 376.804 L90.0985 370.925 Z" fill="#000000" fill-rule="evenodd" fill-opacity="1" /><path clip-path="url(#clip5300)" d="M 0 0 M110.052 360.392 Q106.719 360.392 104.797 362.175 Q102.899 363.957 102.899 367.082 Q102.899 370.207 104.797 371.989 Q106.719 373.772 110.052 373.772 Q113.385 373.772 115.307 371.989 Q117.228 370.184 117.228 367.082 Q117.228 363.957 115.307 362.175 Q113.409 360.392 110.052 360.392 M105.376 358.401 Q102.367 357.661 100.677 355.601 Q99.0105 353.54 99.0105 350.577 Q99.0105 346.434 101.95 344.027 Q104.913 341.619 110.052 341.619 Q115.214 341.619 118.154 344.027 Q121.094 346.434 121.094 350.577 Q121.094 353.54 119.404 355.601 Q117.737 357.661 114.751 358.401 Q118.131 359.189 120.006 361.48 Q121.904 363.772 121.904 367.082 Q121.904 372.105 118.825 374.79 Q115.77 377.475 110.052 377.475 Q104.334 377.475 101.256 374.79 Q98.2003 372.105 98.2003 367.082 Q98.2003 363.772 100.098 361.48 Q101.997 359.189 105.376 358.401 M103.663 351.017 Q103.663 353.702 105.33 355.207 Q107.02 356.712 110.052 356.712 Q113.061 356.712 114.751 355.207 Q116.464 353.702 116.464 351.017 Q116.464 348.332 114.751 346.827 Q113.061 345.323 110.052 345.323 Q107.02 345.323 105.33 346.827 Q103.663 348.332 103.663 351.017 Z" fill="#000000" fill-rule="evenodd" fill-opacity="1" /><path clip-path="url(#clip5300)" d="M 0 0 M68.6171 101.321 L84.9365 101.321 L84.9365 105.256 L62.9921 105.256 L62.9921 101.321 Q65.6541 98.5665 70.2375 93.9369 Q74.8439 89.2841 76.0245 87.9416 Q78.2698 85.4184 79.1494 83.6823 Q80.0522 81.9231 80.0522 80.2333 Q80.0522 77.4786 78.1078 75.7425 Q76.1865 74.0064 73.0847 74.0064 Q70.8856 74.0064 68.4319 74.7703 Q66.0014 75.5342 63.2236 77.0851 L63.2236 72.3629 Q66.0477 71.2287 68.5014 70.65 Q70.955 70.0713 72.9921 70.0713 Q78.3624 70.0713 81.5568 72.7565 Q84.7513 75.4416 84.7513 79.9323 Q84.7513 82.062 83.9411 83.9832 Q83.1541 85.8814 81.0476 88.474 Q80.4689 89.1453 77.367 92.3628 Q74.2652 95.5573 68.6171 101.321 Z" fill="#000000" fill-rule="evenodd" fill-opacity="1" /><path clip-path="url(#clip5300)" d="M 0 0 M90.0059 99.3767 L94.8901 99.3767 L94.8901 105.256 L90.0059 105.256 L90.0059 99.3767 Z" fill="#000000" fill-rule="evenodd" fill-opacity="1" /><path clip-path="url(#clip5300)" d="M 0 0 M109.959 73.775 Q106.348 73.775 104.52 77.3398 Q102.714 80.8814 102.714 88.011 Q102.714 95.1174 104.52 98.6822 Q106.348 102.224 109.959 102.224 Q113.594 102.224 115.399 98.6822 Q117.228 95.1174 117.228 88.011 Q117.228 80.8814 115.399 77.3398 Q113.594 73.775 109.959 73.775 M109.959 70.0713 Q115.77 70.0713 118.825 74.6777 Q121.904 79.261 121.904 88.011 Q121.904 96.7378 118.825 101.344 Q115.77 105.928 109.959 105.928 Q104.149 105.928 101.071 101.344 Q98.0151 96.7378 98.0151 88.011 Q98.0151 79.261 101.071 74.6777 Q104.149 70.0713 109.959 70.0713 Z" fill="#000000" fill-rule="evenodd" fill-opacity="1" /><polyline clip-path="url(#clip5302)" style="stroke:#009af9; stroke-width:4; stroke-opacity:1; fill:none" points="
  208.362,1445.72 228.694,1445.72 416.691,1445.72 529.669,1445.72 625.191,1445.72 728.954,1445.72 824.615,1445.72 927.173,1445.72 1046,1445.72 1151.59,1445.72 
  1244.19,1445.72 1345.15,1445.72 1446.71,1445.72 1558.99,1445.72 1665.83,1445.72 1776.91,1445.72 1870.42,1445.72 1984.59,1445.72 2091.91,1445.72 2263.84,1445.72 
  2290.3,1445.72 
  "/>
<path clip-path="url(#clip5300)" d="
M1989.74 251.724 L2280.76 251.724 L2280.76 130.764 L1989.74 130.764  Z
  " fill="#ffffff" fill-rule="evenodd" fill-opacity="1"/>
<polyline clip-path="url(#clip5300)" style="stroke:#000000; stroke-width:4; stroke-opacity:1; fill:none" points="
  1989.74,251.724 2280.76,251.724 2280.76,130.764 1989.74,130.764 1989.74,251.724 
  "/>
<polyline clip-path="url(#clip5300)" style="stroke:#009af9; stroke-width:4; stroke-opacity:1; fill:none" points="
  2013.74,191.244 2157.74,191.244 
  "/>
<path clip-path="url(#clip5300)" d="M 0 0 M2195.58 210.931 Q2193.77 215.561 2192.06 216.973 Q2190.35 218.385 2187.48 218.385 L2184.08 218.385 L2184.08 214.82 L2186.58 214.82 Q2188.33 214.82 2189.31 213.987 Q2190.28 213.154 2191.46 210.052 L2192.22 208.107 L2181.74 182.598 L2186.25 182.598 L2194.35 202.876 L2202.46 182.598 L2206.97 182.598 L2195.58 210.931 Z" fill="#000000" fill-rule="evenodd" fill-opacity="1" /><path clip-path="url(#clip5300)" d="M 0 0 M2212.85 204.589 L2220.49 204.589 L2220.49 178.223 L2212.18 179.89 L2212.18 175.631 L2220.44 173.964 L2225.12 173.964 L2225.12 204.589 L2232.76 204.589 L2232.76 208.524 L2212.85 208.524 L2212.85 204.589 Z" fill="#000000" fill-rule="evenodd" fill-opacity="1" /></svg>
