<?xml version="1.0" encoding="utf-8"?>
<svg xmlns="http://www.w3.org/2000/svg" xmlns:xlink="http://www.w3.org/1999/xlink" width="600" height="400" viewBox="0 0 2400 1600">
<defs>
  <clipPath id="clip4500">
    <rect x="0" y="0" width="2400" height="1600"/>
  </clipPath>
</defs>
<path clip-path="url(#clip4500)" d="
M0 1600 L2400 1600 L2400 0 L0 0  Z
  " fill="#ffffff" fill-rule="evenodd" fill-opacity="1"/>
<defs>
  <clipPath id="clip4501">
    <rect x="480" y="0" width="1681" height="1600"/>
  </clipPath>
</defs>
<path clip-path="url(#clip4500)" d="
M136.76 1486.45 L2352.76 1486.45 L2352.76 47.2441 L136.76 47.2441  Z
  " fill="#ffffff" fill-rule="evenodd" fill-opacity="1"/>
<defs>
  <clipPath id="clip4502">
    <rect x="136" y="47" width="2217" height="1440"/>
  </clipPath>
</defs>
<polyline clip-path="url(#clip4502)" style="stroke:#000000; stroke-width:2; stroke-opacity:0.1; fill:none" points="
  408.533,1486.45 408.533,47.2441 
  "/>
<polyline clip-path="url(#clip4502)" style="stroke:#000000; stroke-width:2; stroke-opacity:0.1; fill:none" points="
  826.646,1486.45 826.646,47.2441 
  "/>
<polyline clip-path="url(#clip4502)" style="stroke:#000000; stroke-width:2; stroke-opacity:0.1; fill:none" points="
  1244.76,1486.45 1244.76,47.2441 
  "/>
<polyline clip-path="url(#clip4502)" style="stroke:#000000; stroke-width:2; stroke-opacity:0.1; fill:none" points="
  1662.87,1486.45 1662.87,47.2441 
  "/>
<polyline clip-path="url(#clip4502)" style="stroke:#000000; stroke-width:2; stroke-opacity:0.1; fill:none" points="
  2080.98,1486.45 2080.98,47.2441 
  "/>
<polyline clip-path="url(#clip4502)" style="stroke:#000000; stroke-width:2; stroke-opacity:0.1; fill:none" points="
  136.76,1447.04 2352.76,1447.04 
  "/>
<polyline clip-path="url(#clip4502)" style="stroke:#000000; stroke-width:2; stroke-opacity:0.1; fill:none" points="
  136.76,1022.33 2352.76,1022.33 
  "/>
<polyline clip-path="url(#clip4502)" style="stroke:#000000; stroke-width:2; stroke-opacity:0.1; fill:none" points="
  136.76,597.626 2352.76,597.626 
  "/>
<polyline clip-path="url(#clip4502)" style="stroke:#000000; stroke-width:2; stroke-opacity:0.1; fill:none" points="
  136.76,172.918 2352.76,172.918 
  "/>
<polyline clip-path="url(#clip4500)" style="stroke:#000000; stroke-width:4; stroke-opacity:1; fill:none" points="
  136.76,1486.45 2352.76,1486.45 
  "/>
<polyline clip-path="url(#clip4500)" style="stroke:#000000; stroke-width:4; stroke-opacity:1; fill:none" points="
  136.76,1486.45 136.76,47.2441 
  "/>
<polyline clip-path="url(#clip4500)" style="stroke:#000000; stroke-width:4; stroke-opacity:1; fill:none" points="
  408.533,1486.45 408.533,1469.18 
  "/>
<polyline clip-path="url(#clip4500)" style="stroke:#000000; stroke-width:4; stroke-opacity:1; fill:none" points="
  826.646,1486.45 826.646,1469.18 
  "/>
<polyline clip-path="url(#clip4500)" style="stroke:#000000; stroke-width:4; stroke-opacity:1; fill:none" points="
  1244.76,1486.45 1244.76,1469.18 
  "/>
<polyline clip-path="url(#clip4500)" style="stroke:#000000; stroke-width:4; stroke-opacity:1; fill:none" points="
  1662.87,1486.45 1662.87,1469.18 
  "/>
<polyline clip-path="url(#clip4500)" style="stroke:#000000; stroke-width:4; stroke-opacity:1; fill:none" points="
  2080.98,1486.45 2080.98,1469.18 
  "/>
<polyline clip-path="url(#clip4500)" style="stroke:#000000; stroke-width:4; stroke-opacity:1; fill:none" points="
  136.76,1447.04 163.352,1447.04 
  "/>
<polyline clip-path="url(#clip4500)" style="stroke:#000000; stroke-width:4; stroke-opacity:1; fill:none" points="
  136.76,1022.33 163.352,1022.33 
  "/>
<polyline clip-path="url(#clip4500)" style="stroke:#000000; stroke-width:4; stroke-opacity:1; fill:none" points="
  136.76,597.626 163.352,597.626 
  "/>
<polyline clip-path="url(#clip4500)" style="stroke:#000000; stroke-width:4; stroke-opacity:1; fill:none" points="
  136.76,172.918 163.352,172.918 
  "/>
<path clip-path="url(#clip4500)" d="M 0 0 M388.545 1525.04 L401.022 1525.04 L401.022 1528.83 L388.545 1528.83 L388.545 1525.04 Z" fill="#000000" fill-rule="evenodd" fill-opacity="1" /><path clip-path="url(#clip4500)" d="M 0 0 M418.938 1509.43 L407.133 1527.88 L418.938 1527.88 L418.938 1509.43 M417.712 1505.36 L423.591 1505.36 L423.591 1527.88 L428.522 1527.88 L428.522 1531.77 L423.591 1531.77 L423.591 1539.92 L418.938 1539.92 L418.938 1531.77 L403.337 1531.77 L403.337 1527.26 L417.712 1505.36 Z" fill="#000000" fill-rule="evenodd" fill-opacity="1" /><path clip-path="url(#clip4500)" d="M 0 0 M807.699 1525.04 L820.176 1525.04 L820.176 1528.83 L807.699 1528.83 L807.699 1525.04 Z" fill="#000000" fill-rule="evenodd" fill-opacity="1" /><path clip-path="url(#clip4500)" d="M 0 0 M829.273 1535.98 L845.592 1535.98 L845.592 1539.92 L823.648 1539.92 L823.648 1535.98 Q826.31 1533.23 830.893 1528.6 Q835.5 1523.95 836.68 1522.61 Q838.926 1520.08 839.805 1518.35 Q840.708 1516.59 840.708 1514.9 Q840.708 1512.14 838.764 1510.41 Q836.842 1508.67 833.741 1508.67 Q831.542 1508.67 829.088 1509.43 Q826.657 1510.2 823.88 1511.75 L823.88 1507.03 Q826.704 1505.89 829.157 1505.31 Q831.611 1504.73 833.648 1504.73 Q839.018 1504.73 842.213 1507.42 Q845.407 1510.11 845.407 1514.6 Q845.407 1516.73 844.597 1518.65 Q843.81 1520.54 841.704 1523.14 Q841.125 1523.81 838.023 1527.03 Q834.921 1530.22 829.273 1535.98 Z" fill="#000000" fill-rule="evenodd" fill-opacity="1" /><path clip-path="url(#clip4500)" d="M 0 0 M1244.76 1508.44 Q1241.15 1508.44 1239.32 1512 Q1237.51 1515.55 1237.51 1522.67 Q1237.51 1529.78 1239.32 1533.35 Q1241.15 1536.89 1244.76 1536.89 Q1248.39 1536.89 1250.2 1533.35 Q1252.03 1529.78 1252.03 1522.67 Q1252.03 1515.55 1250.2 1512 Q1248.39 1508.44 1244.76 1508.44 M1244.76 1504.73 Q1250.57 1504.73 1253.62 1509.34 Q1256.7 1513.92 1256.7 1522.67 Q1256.7 1531.4 1253.62 1536.01 Q1250.57 1540.59 1244.76 1540.59 Q1238.95 1540.59 1235.87 1536.01 Q1232.81 1531.4 1232.81 1522.67 Q1232.81 1513.92 1235.87 1509.34 Q1238.95 1504.73 1244.76 1504.73 Z" fill="#000000" fill-rule="evenodd" fill-opacity="1" /><path clip-path="url(#clip4500)" d="M 0 0 M1657.52 1535.98 L1673.84 1535.98 L1673.84 1539.92 L1651.9 1539.92 L1651.9 1535.98 Q1654.56 1533.23 1659.14 1528.6 Q1663.75 1523.95 1664.93 1522.61 Q1667.18 1520.08 1668.06 1518.35 Q1668.96 1516.59 1668.96 1514.9 Q1668.96 1512.14 1667.01 1510.41 Q1665.09 1508.67 1661.99 1508.67 Q1659.79 1508.67 1657.34 1509.43 Q1654.91 1510.2 1652.13 1511.75 L1652.13 1507.03 Q1654.95 1505.89 1657.41 1505.31 Q1659.86 1504.73 1661.9 1504.73 Q1667.27 1504.73 1670.46 1507.42 Q1673.66 1510.11 1673.66 1514.6 Q1673.66 1516.73 1672.85 1518.65 Q1672.06 1520.54 1669.95 1523.14 Q1669.38 1523.81 1666.27 1527.03 Q1663.17 1530.22 1657.52 1535.98 Z" fill="#000000" fill-rule="evenodd" fill-opacity="1" /><path clip-path="url(#clip4500)" d="M 0 0 M2083.99 1509.43 L2072.19 1527.88 L2083.99 1527.88 L2083.99 1509.43 M2082.77 1505.36 L2088.64 1505.36 L2088.64 1527.88 L2093.58 1527.88 L2093.58 1531.77 L2088.64 1531.77 L2088.64 1539.92 L2083.99 1539.92 L2083.99 1531.77 L2068.39 1531.77 L2068.39 1527.26 L2082.77 1505.36 Z" fill="#000000" fill-rule="evenodd" fill-opacity="1" /><path clip-path="url(#clip4500)" d="M 0 0 M100.816 1432.84 Q97.2049 1432.84 95.3762 1436.41 Q93.5707 1439.95 93.5707 1447.08 Q93.5707 1454.18 95.3762 1457.75 Q97.2049 1461.29 100.816 1461.29 Q104.45 1461.29 106.256 1457.75 Q108.084 1454.18 108.084 1447.08 Q108.084 1439.95 106.256 1436.41 Q104.45 1432.84 100.816 1432.84 M100.816 1429.14 Q106.626 1429.14 109.682 1433.74 Q112.76 1438.33 112.76 1447.08 Q112.76 1455.8 109.682 1460.41 Q106.626 1464.99 100.816 1464.99 Q95.0058 1464.99 91.9272 1460.41 Q88.8716 1455.8 88.8716 1447.08 Q88.8716 1438.33 91.9272 1433.74 Q95.0058 1429.14 100.816 1429.14 Z" fill="#000000" fill-rule="evenodd" fill-opacity="1" /><path clip-path="url(#clip4500)" d="M 0 0 M65.8393 1035.68 L73.4782 1035.68 L73.4782 1009.31 L65.168 1010.98 L65.168 1006.72 L73.4319 1005.05 L78.1078 1005.05 L78.1078 1035.68 L85.7466 1035.68 L85.7466 1039.61 L65.8393 1039.61 L65.8393 1035.68 Z" fill="#000000" fill-rule="evenodd" fill-opacity="1" /><path clip-path="url(#clip4500)" d="M 0 0 M100.816 1008.13 Q97.2049 1008.13 95.3762 1011.7 Q93.5707 1015.24 93.5707 1022.37 Q93.5707 1029.48 95.3762 1033.04 Q97.2049 1036.58 100.816 1036.58 Q104.45 1036.58 106.256 1033.04 Q108.084 1029.48 108.084 1022.37 Q108.084 1015.24 106.256 1011.7 Q104.45 1008.13 100.816 1008.13 M100.816 1004.43 Q106.626 1004.43 109.682 1009.04 Q112.76 1013.62 112.76 1022.37 Q112.76 1031.1 109.682 1035.7 Q106.626 1040.29 100.816 1040.29 Q95.0058 1040.29 91.9272 1035.7 Q88.8716 1031.1 88.8716 1022.37 Q88.8716 1013.62 91.9272 1009.04 Q95.0058 1004.43 100.816 1004.43 Z" fill="#000000" fill-rule="evenodd" fill-opacity="1" /><path clip-path="url(#clip4500)" d="M 0 0 M69.4273 610.971 L85.7466 610.971 L85.7466 614.906 L63.8023 614.906 L63.8023 610.971 Q66.4643 608.216 71.0476 603.587 Q75.6541 598.934 76.8346 597.592 Q79.08 595.068 79.9596 593.332 Q80.8624 591.573 80.8624 589.883 Q80.8624 587.129 78.918 585.393 Q76.9967 583.656 73.8948 583.656 Q71.6958 583.656 69.2421 584.42 Q66.8115 585.184 64.0338 586.735 L64.0338 582.013 Q66.8578 580.879 69.3115 580.3 Q71.7652 579.721 73.8023 579.721 Q79.1726 579.721 82.367 582.406 Q85.5614 585.092 85.5614 589.582 Q85.5614 591.712 84.7513 593.633 Q83.9642 595.531 81.8578 598.124 Q81.2791 598.795 78.1772 602.013 Q75.0754 605.207 69.4273 610.971 Z" fill="#000000" fill-rule="evenodd" fill-opacity="1" /><path clip-path="url(#clip4500)" d="M 0 0 M100.816 583.425 Q97.2049 583.425 95.3762 586.99 Q93.5707 590.531 93.5707 597.661 Q93.5707 604.767 95.3762 608.332 Q97.2049 611.874 100.816 611.874 Q104.45 611.874 106.256 608.332 Q108.084 604.767 108.084 597.661 Q108.084 590.531 106.256 586.99 Q104.45 583.425 100.816 583.425 M100.816 579.721 Q106.626 579.721 109.682 584.328 Q112.76 588.911 112.76 597.661 Q112.76 606.388 109.682 610.994 Q106.626 615.578 100.816 615.578 Q95.0058 615.578 91.9272 610.994 Q88.8716 606.388 88.8716 597.661 Q88.8716 588.911 91.9272 584.328 Q95.0058 579.721 100.816 579.721 Z" fill="#000000" fill-rule="evenodd" fill-opacity="1" /><path clip-path="url(#clip4500)" d="M 0 0 M78.617 171.564 Q81.9735 172.281 83.8485 174.55 Q85.7466 176.818 85.7466 180.152 Q85.7466 185.267 82.2281 188.068 Q78.7096 190.869 72.2282 190.869 Q70.0523 190.869 67.7375 190.429 Q65.4458 190.013 62.9921 189.156 L62.9921 184.642 Q64.9366 185.777 67.2514 186.355 Q69.5662 186.934 72.0893 186.934 Q76.4874 186.934 78.7791 185.198 Q81.0939 183.462 81.0939 180.152 Q81.0939 177.096 78.9411 175.383 Q76.8115 173.647 72.9921 173.647 L68.9643 173.647 L68.9643 169.805 L73.1773 169.805 Q76.6263 169.805 78.455 168.439 Q80.2837 167.05 80.2837 164.457 Q80.2837 161.795 78.3856 160.383 Q76.5106 158.948 72.9921 158.948 Q71.0708 158.948 68.8717 159.365 Q66.6727 159.781 64.0338 160.661 L64.0338 156.494 Q66.6958 155.754 69.0106 155.383 Q71.3486 155.013 73.4087 155.013 Q78.7328 155.013 81.8346 157.443 Q84.9365 159.851 84.9365 163.971 Q84.9365 166.842 83.2929 168.832 Q81.6494 170.8 78.617 171.564 Z" fill="#000000" fill-rule="evenodd" fill-opacity="1" /><path clip-path="url(#clip4500)" d="M 0 0 M100.816 158.717 Q97.2049 158.717 95.3762 162.281 Q93.5707 165.823 93.5707 172.953 Q93.5707 180.059 95.3762 183.624 Q97.2049 187.166 100.816 187.166 Q104.45 187.166 106.256 183.624 Q108.084 180.059 108.084 172.953 Q108.084 165.823 106.256 162.281 Q104.45 158.717 100.816 158.717 M100.816 155.013 Q106.626 155.013 109.682 159.619 Q112.76 164.203 112.76 172.953 Q112.76 181.679 109.682 186.286 Q106.626 190.869 100.816 190.869 Q95.0058 190.869 91.9272 186.286 Q88.8716 181.679 88.8716 172.953 Q88.8716 164.203 91.9272 159.619 Q95.0058 155.013 100.816 155.013 Z" fill="#000000" fill-rule="evenodd" fill-opacity="1" /><polyline clip-path="url(#clip4502)" style="stroke:#009af9; stroke-width:4; stroke-opacity:1; fill:none" points="
  199.477,87.9763 204.581,110.782 209.685,133.205 214.789,155.252 219.893,176.929 243.49,272.512 267.087,360.903 290.684,442.641 314.281,518.228 337.878,588.127 
  361.475,652.766 385.072,712.54 408.669,767.815 437.031,828.776 465.392,884.265 493.754,934.774 522.116,980.75 570.074,1049.3 618.033,1107.78 670.13,1161.6 
  722.226,1206.88 770.255,1242.23 818.283,1272.38 921.267,1322.91 1040.58,1363.46 1146.62,1388.24 1239.6,1403.84 1340.98,1416.17 1442.95,1425.03 1555.7,1431.9 
  1662.98,1436.43 1774.53,1439.71 1868.42,1441.67 1983.06,1443.37 2090.83,1444.47 2263.47,1445.59 2290.04,1445.72 
  "/>
<path clip-path="url(#clip4500)" d="
M1989.74 251.724 L2280.76 251.724 L2280.76 130.764 L1989.74 130.764  Z
  " fill="#ffffff" fill-rule="evenodd" fill-opacity="1"/>
<polyline clip-path="url(#clip4500)" style="stroke:#000000; stroke-width:4; stroke-opacity:1; fill:none" points="
  1989.74,251.724 2280.76,251.724 2280.76,130.764 1989.74,130.764 1989.74,251.724 
  "/>
<polyline clip-path="url(#clip4500)" style="stroke:#009af9; stroke-width:4; stroke-opacity:1; fill:none" points="
  2013.74,191.244 2157.74,191.244 
  "/>
<path clip-path="url(#clip4500)" d="M 0 0 M2195.58 210.931 Q2193.77 215.561 2192.06 216.973 Q2190.35 218.385 2187.48 218.385 L2184.08 218.385 L2184.08 214.82 L2186.58 214.82 Q2188.33 214.82 2189.31 213.987 Q2190.28 213.154 2191.46 210.052 L2192.22 208.107 L2181.74 182.598 L2186.25 182.598 L2194.35 202.876 L2202.46 182.598 L2206.97 182.598 L2195.58 210.931 Z" fill="#000000" fill-rule="evenodd" fill-opacity="1" /><path clip-path="url(#clip4500)" d="M 0 0 M2212.85 204.589 L2220.49 204.589 L2220.49 178.223 L2212.18 179.89 L2212.18 175.631 L2220.44 173.964 L2225.12 173.964 L2225.12 204.589 L2232.76 204.589 L2232.76 208.524 L2212.85 208.524 L2212.85 204.589 Z" fill="#000000" fill-rule="evenodd" fill-opacity="1" /></svg>
